<svg id="Layer_1" data-name="Layer 1" xmlns="http://www.w3.org/2000/svg" viewBox="0 0 1166.64 238.15"><defs><style>.cls-1{fill:#ab8dc2;}</style></defs><path class="cls-1" d="M267.87,721.88c18.56-26.17,21.89-31.17,26.89-39,.95-1.43-.95-1.9-3.09-2.14-5.95-.48-10.71-.72-16.42-.72l-.48-.47v-2.14c10,.23,13.09.23,23.32.23s11.9,0,21.9-.23v2.14l-.48.47a107.45,107.45,0,0,0-13.56.72,7.31,7.31,0,0,0-5.48,3.09c-10.23,13.33-19.27,25.22-29.74,40.45l-13.57,19.52c-3.8,6.18-4.76,8.09-4.76,13.8v68.53c0,1.67.72,2.38,2.86,2.62,5.95.48,14,.71,19.75.71l.48.48v2.14c-10-.24-22.37-.24-32.6-.24s-22.61,0-32.61.24v-2.14l.48-.48c5.71,0,13.8-.23,19.75-.71,2.14-.24,2.86-1,2.86-2.62V757.58c0-5-1.43-9-4.76-13.8l-41.88-60a6.78,6.78,0,0,0-5-3.09c-5.95-.48-10.47-.72-16.18-.72l-.48-.47v-2.14c10,.23,20.23.23,30.46.23s21.42,0,31.41-.23v2.14l-.47.47c-5.72,0-8.81.24-14.76.72-2.14.24-3.33.95-2.38,2.38l42.84,61.39Z" transform="translate(-165.07 -653.64)"/><path class="cls-1" d="M396.14,829.92v1.9c-7.14,0-25.94,0-39,.48l-.47-.48c.23-4.28.47-9.75.47-13.8A64.41,64.41,0,0,1,339,830.39a30.55,30.55,0,0,1-13.33,3.34c-14.28,0-25.22-8.81-25.22-25.23,0-12.37,8.09-21.41,23.08-24.27,8.09-1.43,22.37-5,29.75-7.85,2.37-1,3.8-2.14,3.8-4.52v-6.19c0-18.09-3.8-27.84-18.8-27.84-9.28,0-19.27,7.14-22.84,16.42-1.19,3.09-2.14,8.09-2.86,14l-.47.47h-1.67c0-11.42,0-18.08-.47-22.6l.23-1a55.18,55.18,0,0,1,31.41-10.47c20.95,0,33.08,10.24,33.08,28.8v62.34c0,1.91.72,2.86,2.38,2.86,6.9.48,13.8.71,18.56.71Zm-39-51.4c-4.52,1.9-9.75,3.33-20.7,6.19-9.52,2.38-15,8.32-15,18.08,0,13.8,4.76,22.37,14.75,22.37,5.95,0,10.23-1.9,15.95-6.66a12.52,12.52,0,0,0,5-10.24Z" transform="translate(-165.07 -653.64)"/><path class="cls-1" d="M418.51,742.59c0-1.91-.72-2.62-2.38-2.86-4.52-.48-10.47-.71-16.18-.71l-.48-.48v-1.9c10.23,0,27.13,0,36.65-.48l.47.48c-.23,4.52-.47,11.18-.47,15.47v91.37c0,13.8-3.33,23.08-9.76,31.41-9,11.66-16.89,16.9-27.6,16.9-8.33,0-15.47-1.9-20-5.47l-.24-1c.71-9,1.43-24,1.43-31.88h1.66l.48.47a100.39,100.39,0,0,0,1.67,16.66c1.9,9.28,5.23,18.09,17.61,18.09a16.21,16.21,0,0,0,15.22-11.19,60.77,60.77,0,0,0,1.91-15.23Zm8.8-25.94a11.9,11.9,0,1,1,11.9-11.9A11.79,11.79,0,0,1,427.31,716.65Z" transform="translate(-165.07 -653.64)"/><path class="cls-1" d="M560.34,829.92v1.9c-7.14,0-25.94,0-39,.48l-.48-.48c.24-4.28.48-9.75.48-13.8a64.41,64.41,0,0,1-18.08,12.37,30.58,30.58,0,0,1-13.33,3.34c-14.28,0-25.22-8.81-25.22-25.23,0-12.37,8.09-21.41,23.08-24.27,8.09-1.43,22.37-5,29.74-7.85,2.38-1,3.81-2.14,3.81-4.52v-6.19c0-18.09-3.81-27.84-18.8-27.84-9.28,0-19.27,7.14-22.84,16.42-1.19,3.09-2.14,8.09-2.86,14l-.47.47h-1.67c0-11.42,0-18.08-.48-22.6l.24-1a55.18,55.18,0,0,1,31.41-10.47c20.94,0,33.08,10.24,33.08,28.8v62.34c0,1.91.71,2.86,2.38,2.86,6.9.48,13.8.71,18.56.71Zm-39-51.4c-4.52,1.9-9.76,3.33-20.7,6.19-9.52,2.38-15,8.32-15,18.08,0,13.8,4.76,22.37,14.75,22.37,5.95,0,10.23-1.9,15.94-6.66a12.52,12.52,0,0,0,5-10.24Z" transform="translate(-165.07 -653.64)"/><path class="cls-1" d="M605.79,825.87c0,1.91.71,2.62,2.38,2.86a130.66,130.66,0,0,0,16.89.71l.48.48v2.14c-7.14-.24-20.23-.24-28.56-.24s-21.41,0-28.55.24v-2.14l.47-.48a130.82,130.82,0,0,0,16.9-.71c1.67-.24,2.38-1,2.38-2.86V742.59c0-1.91-.71-2.62-2.38-2.86-4.52-.48-10.47-.71-16.18-.71l-.48-.48v-1.9c10.23,0,27.13,0,36.65-.48l.47.48c-.23,4.52-.47,11.18-.47,15.47ZM597,716.65a11.9,11.9,0,1,1,11.9-11.9A11.78,11.78,0,0,1,597,716.65Z" transform="translate(-165.07 -653.64)"/><path class="cls-1" d="M689.79,739c3.81-2.86,6.9-4.29,11.19-4.29,6.42,0,10.94,3.1,13.08,6.9l.24,1c-.71,9-1.43,22.6-1.43,30.46h-1.66l-.48-.48a69.59,69.59,0,0,0-1.19-14.28c-1.42-7.85-7.14-12.13-15.7-12.13a19,19,0,0,0-13.09,5c-5.47,5-6.43,7.62-6.43,14.76v60c0,1.91.72,2.62,2.38,2.86a130.89,130.89,0,0,0,16.9.71l.48.48v2.14c-7.14-.24-20.23-.24-28.56-.24s-21.42,0-28.56.24v-2.14l.48-.48a130.89,130.89,0,0,0,16.9-.71c1.66-.24,2.37-1,2.37-2.86V742.59c0-1.91-.71-2.62-2.37-2.86-4.53-.48-10.48-.71-16.19-.71l-.47-.48v-1.9c10.23,0,27.13,0,36.64-.48l.48.48c-.24,4.52-.48,13.09-.48,17.37A88.59,88.59,0,0,1,689.79,739Z" transform="translate(-165.07 -653.64)"/><path class="cls-1" d="M824.24,829.92v1.9c-7.13,0-25.93,0-39,.48l-.48-.48c.24-4.28.48-9.75.48-13.8a64.31,64.31,0,0,1-18.09,12.37,30.51,30.51,0,0,1-13.32,3.34c-14.28,0-25.23-8.81-25.23-25.23,0-12.37,8.09-21.41,23.09-24.27,8.09-1.43,22.37-5,29.74-7.85,2.38-1,3.81-2.14,3.81-4.52v-6.19c0-18.09-3.81-27.84-18.8-27.84-9.28,0-19.28,7.14-22.85,16.42-1.19,3.09-2.14,8.09-2.85,14l-.48.47h-1.66c0-11.42,0-18.08-.48-22.6l.24-1a55.15,55.15,0,0,1,31.41-10.47c20.94,0,33.08,10.24,33.08,28.8v62.34c0,1.91.71,2.86,2.38,2.86,6.9.48,13.8.71,18.56.71Zm-39-51.4c-4.52,1.9-9.76,3.33-20.7,6.19-9.52,2.38-15,8.32-15,18.08,0,13.8,4.76,22.37,14.76,22.37,6,0,10.23-1.9,15.94-6.66a12.52,12.52,0,0,0,5-10.24Z" transform="translate(-165.07 -653.64)"/><path class="cls-1" d="M949.89,735.33,902.6,805.39q18.12-12.66,34.27-12.66,14.65,0,39.51,10.22l22.08,9.18q9.64,4,13.13,4,6.39,0,15.22-12.9l3.6,2.21c-.69,1.09-1.12,1.75-1.27,2l-7.67,10.92L1014,829.91a25.26,25.26,0,0,1-1.63,2.32Q1001.48,829.56,985,822q-22.89-10.35-35.56-14.18A84.25,84.25,0,0,0,925,804q-12.43,0-21.15,5.58t-17.43,19.17L883,826.31l23.94-36.14q-14.29-17.89-14.3-40.09a49.48,49.48,0,0,1,11.62-32.65q11.63-13.93,27.19-13.94,13.25,0,24.17,13.13l.7-1.16,3.49-6.05q4.29-7.2,4.29-12a7.11,7.11,0,0,0-1.51-4.18l2.33-.11,6.27-.24q1.51,0,6.86-.69l1.63-.24q-2.68,3.49-10.11,15-3.62,5.58-8.14,12l-1.86,2.67c.7.93,1.09,1.48,1.17,1.63l6.73,9.41q17,23.36,38.81,23.36,13.71,0,24.7-13.6a47.53,47.53,0,0,0,11-30.67q0-27.07-38.23-27.08-16.62,0-61.35,3.49l-33.7,2.67q-11.28.93-23.47.93-22.08,0-30.1-5.46L864,653.64l4.07,1-.35,2a50.51,50.51,0,0,0-1.51,9.88,8.05,8.05,0,0,0,5,8q5,2.26,17.55,2.26,19.17,0,56.47-3,42.06-3.37,58.8-3.37,49.26,0,49.26,33.58,0,20.12-14.52,38.11-17.19,21.27-43.34,21.27-13.14,0-22.66-5.58t-21-20Zm-3.6-4.65q-6.39-8.83-11.74-12.67a19.06,19.06,0,0,0-11.27-3.83,21.26,21.26,0,0,0-16.79,7.72q-6.69,7.74-6.68,19.58,0,16.28,15.92,35.21Z" transform="translate(-165.07 -653.64)"/><path class="cls-1" d="M1104,778.55a13.33,13.33,0,0,1,1.62,5.81q0,11.16-15.45,25.68-22.55,21.27-38.35,21.26-13.59,0-13.59-15.45,0-17.43,10.63-36.6a98.61,98.61,0,0,1,27.25-31.61q20.22-15.1,36-15.1,9.18,0,9.18,6.74,0,4.41-4.42,10.63a51.3,51.3,0,0,1-11,11.21,72.45,72.45,0,0,1-15.63,8.37q-9.48,3.82-14.59,3.83-5.46,0-7.55-6a59,59,0,0,0,7.79.7,37.38,37.38,0,0,0,21.44-6.68q9.81-6.69,9.81-14.47,0-5.58-7.2-5.58-12.9,0-26.38,15.8a96.68,96.68,0,0,0-15.68,26q-6.16,14.88-6.16,26.5,0,12,10,12,10.92,0,22.72-12T1104,778.55Z" transform="translate(-165.07 -653.64)"/><path class="cls-1" d="M1188.44,733.93l-4.18,11.74a38.41,38.41,0,0,0-7.79-.93q-13.47,0-28.81,20.68a117.06,117.06,0,0,0-12.38,21.5q-5.17,11.61-12.84,35.44l-1.28,3.95a129.34,129.34,0,0,0-14.4,4l1.27-3.49,10.23-27.19q14.52-39.27,14.52-46.24c0-2.4-1-3.61-3.13-3.61-1.17,0-3.76,1-7.79,3.14l-1.51-3.6a179.6,179.6,0,0,0,29.17-17.55,18.51,18.51,0,0,1,.46,3.84q0,8.94-8,29.86l2.79-3.25q27.07-29.74,38.35-29.75A11.79,11.79,0,0,1,1188.44,733.93Z" transform="translate(-165.07 -653.64)"/><path class="cls-1" d="M1232.6,778.55a13.33,13.33,0,0,1,1.62,5.81q0,11.16-15.45,25.68-22.55,21.27-38.35,21.26-13.59,0-13.59-15.45,0-17.43,10.63-36.6a98.61,98.61,0,0,1,27.25-31.61q20.22-15.1,36-15.1,9.18,0,9.18,6.74,0,4.41-4.41,10.63a51.57,51.57,0,0,1-11,11.21,72.45,72.45,0,0,1-15.63,8.37q-9.48,3.82-14.58,3.83c-3.65,0-6.16-2-7.56-6a59,59,0,0,0,7.79.7,37.38,37.38,0,0,0,21.44-6.68q9.81-6.69,9.82-14.47,0-5.58-7.21-5.58-12.9,0-26.38,15.8a96.68,96.68,0,0,0-15.68,26q-6.17,14.88-6.16,26.5,0,12,10,12,10.92,0,22.72-12T1232.6,778.55Z" transform="translate(-165.07 -653.64)"/><path class="cls-1" d="M1268.27,736.37l63.44-.46a14.64,14.64,0,0,1-1.16,1.62l-5.69,8.37-5,7.09q-15.57,22.65-29.28,32.71t-33.81,13.65A99,99,0,0,1,1270.36,811q9.77,9.87,18.13,9.88,9.4,0,15.22-8.78t5.81-22.83a54.42,54.42,0,0,0-1.86-13.59q7.78,4.53,7.79,15.33,0,9.76-8.49,23.36-10.45,16.85-26.49,16.85-13.48,0-26.61-14.53-8-8.82-12-8.83-4.29,0-10.22,9.53h-4.42q7.79-12.55,14.76-26.14a48.07,48.07,0,0,0,10.46,1.27,61,61,0,0,0,34.45-10.63q16-10.64,31.32-33.29c-3.65-.31-7.71-.46-12.21-.46q-27.42,0-34,2.44t-12,14.75l-.81,1.86h-4l1.16-2.67q5.46-11.73,10.8-25.33Z" transform="translate(-165.07 -653.64)"/></svg>